HIERARCHY
ROOT root
{
	OFFSET	0	13.1	24.9
	CHANNELS 6  Xposition Yposition Zposition Xrotation Yrotation Zrotation
	JOINT spine_1
	{
		OFFSET	0	9.99999	0
		CHANNELS 3  Xrotation Yrotation Zrotation
		JOINT spine_2
		{
			OFFSET	0	112	-10
			CHANNELS 3  Xrotation Yrotation Zrotation
			JOINT spine_3
			{
				OFFSET	0	206.5	19.3
				CHANNELS 3  Xrotation Yrotation Zrotation
				JOINT spine_4
				{
					OFFSET	0	110.4	14.6
					CHANNELS 3  Xrotation Yrotation Zrotation
					JOINT neck_1
					{
						OFFSET	0	71.8	-50.3
						CHANNELS 3  Xrotation Yrotation Zrotation
						JOINT neck_2
						{
							OFFSET	0	86.2	-25.8
							CHANNELS 3  Xrotation Yrotation Zrotation
							JOINT head_ee
							{
								OFFSET	0	179.8	-8.7
								CHANNELS 3  Xrotation Yrotation Zrotation
								End Site
								{
									OFFSET	1	0	0
								}
							}
						}
					}
					JOINT left_clavicle
					{
						OFFSET	-43.2	22.4	-70.8
						CHANNELS 3  Xrotation Yrotation Zrotation
						JOINT left_shoulder
						{
							OFFSET	-93.9	-5.79999	48.7
							CHANNELS 3  Xrotation Yrotation Zrotation
							JOINT left_elbow
							{
								OFFSET	-291.4	-30.8	15.2
								CHANNELS 3  Xrotation Yrotation Zrotation
								JOINT left_lowarm_twist
								{
									OFFSET	-110.7	-3.89999	13.6
									CHANNELS 3  Xrotation Yrotation Zrotation
									JOINT left_hand
									{
										OFFSET	-110.7	-3.89999	13.6
										CHANNELS 3  Xrotation Yrotation Zrotation
										JOINT left_ee
										{
											OFFSET	-80.8	-5.10001	12.1
											CHANNELS 3  Xrotation Yrotation Zrotation
											End Site
											{
												OFFSET	1	0	0
											}
										}
									}
								}
							}
						}
					}
					JOINT right_clavicle
					{
						OFFSET	43.2	22.4	-70.8
						CHANNELS 3  Xrotation Yrotation Zrotation
						JOINT right_shoulder
						{
							OFFSET	93.9	-5.79999	48.7
							CHANNELS 3  Xrotation Yrotation Zrotation
							JOINT right_elbow
							{
								OFFSET	291.4	-30.8	15.2
								CHANNELS 3  Xrotation Yrotation Zrotation
								JOINT right_lowarm_twist
								{
									OFFSET	110.7	-3.89999	13.6
									CHANNELS 3  Xrotation Yrotation Zrotation
									JOINT right_hand
									{
										OFFSET	110.7	-3.89999	13.6
										CHANNELS 3  Xrotation Yrotation Zrotation
										JOINT right_ee
										{
											OFFSET	80.8	-5.10001	12.1
											CHANNELS 3  Xrotation Yrotation Zrotation
											End Site
											{
												OFFSET	1	0	0
											}
										}
									}
								}
							}
						}
					}
				}
			}
		}
	}
	JOINT left_hip
	{
		OFFSET	-82.8	-127.5	0.300001
		CHANNELS 3  Xrotation Yrotation Zrotation
		JOINT left_knee
		{
			OFFSET	-28.2	-396.7	2.2
			CHANNELS 3  Xrotation Yrotation Zrotation
			JOINT left_ankle
			{
				OFFSET	-11.7	-411.3	35.4
				CHANNELS 3  Xrotation Yrotation Zrotation
				JOINT left_toes
				{
					OFFSET	0	-60	-88.6
					CHANNELS 3  Xrotation Yrotation Zrotation
					JOINT left_foot_ee
					{
						OFFSET	-22.5	-16.5	-42.2
						CHANNELS 3  Xrotation Yrotation Zrotation
						End Site
						{
							OFFSET	1	0	0
						}
					}
				}
			}
		}
	}
	JOINT right_hip
	{
		OFFSET	82.8	-127.5	0.300001
		CHANNELS 3  Xrotation Yrotation Zrotation
		JOINT right_knee
		{
			OFFSET	28.2	-396.7	2.2
			CHANNELS 3  Xrotation Yrotation Zrotation
			JOINT right_ankle
			{
				OFFSET	11.7	-411.3	35.4
				CHANNELS 3  Xrotation Yrotation Zrotation
				JOINT right_toes
				{
					OFFSET	0	-60	-88.6
					CHANNELS 3  Xrotation Yrotation Zrotation
					JOINT right_foot_ee
					{
						OFFSET	22.5	-16.5	-42.2
						CHANNELS 3  Xrotation Yrotation Zrotation
						End Site
						{
							OFFSET	1	0	0
						}
					}
				}
			}
		}
	}
}
MOTION
Frames: 10
Frame Time: 0.02
2934.85698705 691.157 -1897.84441029 -5.84442712864 14.7908396841 -2.19979140162 3.97844 0.543916 2.6052 3.98213 0.377097 2.6345 3.99736 0.000627617 2.66133 3.98772 0.42078 2.62788 -13.2004 9.20733 -6.13323 -13.4041 21.3321 -3.02608 -0.0 0.0 -0.0 -0.0092935 4.00972 0.45984 -9.31737 -19.5023 56.5794 1.27397 -32.254 0.368376 11.7683 0.263708 -1.47753 -1.35622 3.46964 -7.52509 -0.0 0.0 -0.0 9.25011 10.4911 -18.191 -29.2572 32.2918 -66.495 0.553162 15.3242 -0.0744185 -1.96875 0.0735148 -0.240643 -0.114546 -10.8864 -3.76926 0.0 0.0 0.0 24.8722 -16.1566 7.87245 -33.171 -0.0903955 5.0194 18.6305 26.3696 -2.70861 5.1025 -0.0 -0.0 -0.0 0.0 -0.0 20.1464 16.6108 2.54225 -39.5889 0.44082 -5.94066 12.9598 -14.8578 1.83682 -11.8159 0.0 0.0 0.0 0.0 0.0 
2913.88755931 692.223 -1902.78907314 -6.76603556927 14.7002216374 -2.51961046856 3.95799 0.51566 2.60295 3.96169 0.349041 2.63046 3.97562 -0.027612 2.65335 3.96601 0.391636 2.62446 -11.1089 9.32073 -5.67193 -11.2113 21.3338 -2.96549 -0.0 0.0 -0.0 -0.0149708 4.26354 0.479537 -7.89573 -16.3372 56.6706 1.44061 -35.511 0.461318 10.2732 0.247123 -1.28729 -1.80384 4.99299 -9.80476 -0.0 0.0 -0.0 9.92583 12.9509 -19.605 -32.7131 32.2662 -64.8025 0.546985 15.161 -0.0727947 -2.6435 0.10061 -0.322528 -0.628237 -6.40057 1.42957 0.0 0.0 0.0 23.2664 -11.1255 7.47024 -31.4874 -0.0157726 4.77185 19.7347 21.4608 -2.78391 8.31751 -0.0 -0.0 -0.0 0.0 -0.0 21.738 17.2324 2.03319 -35.9756 0.230784 -5.42669 10.2057 -20.9902 1.48839 -12.4885 0.0 0.0 0.0 0.0 0.0 
2886.77781025 692.975 -1896.140821 -7.5003666687 15.2276504322 -2.55075155226 4.0943 0.639878 2.62919 4.09803 0.47134 2.66455 4.11769 0.09546 2.7042 4.10787 0.521188 2.65525 -11.7446 10.6636 -6.86225 -11.9202 24.619 -3.59128 -0.0 0.0 -0.0 0.294109 5.44425 1.18339 -7.28613 -18.5242 54.8617 1.44625 -35.6169 0.464598 10.0385 0.244068 -1.25746 -1.98826 3.95442 -11.5328 -0.0 0.0 -0.0 8.64333 9.74463 -16.8979 -30.7195 32.6864 -65.1072 0.520441 14.4569 -0.0660099 -4.08088 0.16154 -0.495881 -1.02115 -9.27307 2.72203 0.0 0.0 0.0 23.0488 -3.38123 6.6548 -32.5398 -0.0615643 4.92684 19.0686 16.7674 -2.65131 9.59475 -0.0 -0.0 -0.0 0.0 -0.0 23.1707 13.8442 4.15155 -33.7697 0.118685 -5.10691 9.40258 -14.2062 1.3473 -13.9182 0.0 0.0 0.0 0.0 0.0 
2864.28436259 693.885 -1894.55551687 -7.95855857511 16.207184566 -3.17636162321 4.12839 0.580167 2.80369 4.13268 0.400659 2.83489 4.14986 0.00324896 2.86304 4.13871 0.455188 2.82665 -12.029 10.6638 -4.93745 -12.2623 23.379 -1.66347 -0.0 0.0 -0.0 0.61491 6.47121 1.87635 -5.57333 -16.9728 53.9641 1.54305 -37.391 0.522187 8.14268 0.214924 -1.01706 -2.11782 4.59048 -12.1005 -0.0 0.0 -0.0 8.96974 11.0933 -17.5676 -30.458 32.1254 -65.1802 0.405618 11.3614 -0.0403483 -4.52089 0.18106 -0.548642 -1.21337 -11.609 2.90801 0.0 0.0 0.0 22.6901 2.74948 6.5946 -32.7269 -0.0700054 4.95432 18.2923 14.3241 -2.53595 12.3738 -0.0 -0.0 -0.0 0.0 -0.0 24.1408 10.6039 6.3558 -33.8358 0.121863 -5.11655 12.5765 -13.1992 1.77926 -16.3033 0.0 0.0 0.0 0.0 0.0 
2822.56447119 689.288 -1906.92835317 -7.29389232327 20.1253348624 -2.83378143112 4.18954 0.268824 2.44721 4.19286 0.112605 2.45934 4.19559 -0.228179 2.45133 4.18724 0.161706 2.45661 -14.1448 10.6155 -5.87837 -14.5084 23.8089 -2.10724 -0.0 0.0 -0.0 1.22775 7.97574 3.11768 -3.43367 -16.3554 53.7136 1.77625 -41.3408 0.670186 1.43908 0.0484772 -0.177401 -2.56685 4.57241 -15.1539 -0.0 0.0 -0.0 8.75572 11.1304 -17.103 -32.7256 29.2907 -64.8215 0.413827 11.5852 -0.0419811 -3.76307 0.147693 -0.457683 -1.66089 -11.4722 5.81839 0.0 0.0 0.0 15.4863 14.0306 6.05028 -31.3157 -0.00857445 4.74649 20.2349 6.8665 -2.7598 17.7408 -0.0 -0.0 -0.0 0.0 -0.0 34.4299 3.50096 4.89646 -30.8822 -0.00926547 -4.68236 21.2677 -14.9104 2.91419 -19.5738 0.0 0.0 0.0 0.0 0.0 
2801.02817686 688.038 -1909.11771927 -7.45254439913 20.7862755699 -3.1548203174 4.16302 0.190417 2.44095 4.16633 0.0347544 2.44811 4.16573 -0.305067 2.42929 4.15751 0.0823045 2.44698 -15.0019 10.1053 -4.89255 -15.3856 22.2127 -1.17052 -0.0 0.0 -0.0 1.35304 8.48514 3.38404 -3.11132 -16.0825 52.966 1.83 -42.1891 0.705991 -0.336652 -0.0119832 0.0413237 -2.58807 5.54159 -14.8114 -0.0 0.0 -0.0 8.70043 13.5559 -16.8943 -33.3961 28.5723 -65.3423 0.412645 11.553 -0.0417442 -3.4941 0.136141 -0.425296 -1.73499 -11.6246 6.21935 0.0 0.0 0.0 14.4118 17.1077 6.20757 -32.6353 -0.0658617 4.94087 20.4881 4.94116 -2.79295 19.4478 -0.0 -0.0 -0.0 0.0 -0.0 37.5811 0.828377 4.42883 -29.7494 -0.0535823 -4.51416 22.6402 -16.0176 3.09163 -20.4891 0.0 0.0 0.0 0.0 0.0 
2788.87023574 685.81 -1923.49728748 -7.52031692268 21.8156355808 -2.92709824464 4.23093 0.113188 2.28969 4.23385 -0.0327012 2.29225 4.23066 -0.347719 2.26598 4.22349 0.0144161 2.29244 -15.9273 10.5407 -3.44982 -16.4009 22.1799 0.541385 -0.0 0.0 -0.0 1.54784 7.96204 3.68276 -2.36123 -16.4909 53.31 1.90064 -43.2703 0.753923 -1.78989 -0.0664946 0.218885 -2.19063 3.84358 -12.9533 -0.0 0.0 -0.0 8.61277 13.7753 -16.6936 -33.726 27.6758 -66.1406 0.381423 10.6999 -0.0357189 -3.34252 0.129697 -0.40702 -1.85982 -12.2 6.74053 0.0 0.0 0.0 11.7739 16.3526 7.14383 -29.8037 0.0515335 4.52225 20.4503 3.34223 -2.79228 20.1363 -0.0 -0.0 -0.0 0.0 -0.0 39.8574 -0.169198 3.93617 -28.6512 -0.093359 -4.35032 23.6727 -17.1185 3.22754 -21.0869 0.0 0.0 0.0 0.0 0.0 
2780.40149846 684.33 -1945.65911104 -7.54743384585 22.8298966228 -2.16613557299 4.18182 0.131986 2.34501 4.18488 -0.0174582 2.34865 4.18222 -0.342341 2.32365 4.17469 0.0288271 2.34854 -13.6094 9.12071 -4.24318 -13.8519 19.9863 -1.16934 -0.0 0.0 -0.0 1.94155 8.33635 4.4078 -1.42487 -16.6081 53.2411 1.98405 -44.4992 0.811746 -6.11544 -0.255189 0.738565 -2.33503 4.30971 -13.7058 -0.0 0.0 -0.0 8.65564 12.8264 -16.8269 -34.6004 27.4785 -66.953 0.327834 9.22446 -0.0264474 -3.23438 0.12513 -0.393973 -1.66066 -12.2475 5.45248 0.0 0.0 0.0 8.06578 15.5726 7.52325 -25.4718 0.190707 3.87215 21.648 2.94598 -2.94012 20.3299 -0.0 -0.0 -0.0 0.0 -0.0 40.392 2.14035 3.6179 -27.3207 -0.137328 -4.15087 24.4977 -16.5257 3.32073 -20.13 0.0 0.0 0.0 0.0 0.0 
2772.11274009 680.356 -1951.12695246 -7.93527178143 22.5686240972 -2.59223762942 4.02441 -0.014259 2.23804 4.02719 -0.156606 2.2326 4.01943 -0.470394 2.18812 4.01277 -0.119008 2.23492 -13.215 9.76716 -5.51232 -13.4633 22.0097 -2.24593 -0.0 0.0 -0.0 2.11495 7.2622 4.63644 -1.7996 -17.5872 52.6864 1.98883 -44.5681 0.815099 -4.44918 -0.177851 0.540053 -2.13072 5.99446 -11.5076 -0.0 0.0 -0.0 8.82648 14.4242 -17.1309 -34.2064 27.3231 -66.7611 0.360528 10.1262 -0.0319423 -3.07559 0.118468 -0.374797 -1.75432 -10.8791 6.69629 0.0 0.0 0.0 9.3921 21.6061 6.3062 -29.7771 0.0525385 4.51829 20.6251 -1.56844 -2.83995 21.7143 -0.0 -0.0 -0.0 0.0 -0.0 43.4968 -1.83006 4.25016 -24.3139 -0.219541 -3.6968 27.2335 -15.9559 3.63508 -22.5975 0.0 0.0 0.0 0.0 0.0 
2747.3159877 675.482 -1985.86617016 -10.4172912551 23.5467029769 -0.142626137645 4.05242 0.296552 1.99268 4.05461 0.169177 2.0075 4.05923 -0.11445 2.01136 4.05365 0.204579 2.00421 -12.7613 8.39716 -4.22299 -12.9277 18.6164 -1.5329 -0.0 0.0 -0.0 1.83548 8.04935 4.19867 0.104248 -19.0997 54.7892 2.06701 -45.6721 0.870499 -5.99621 -0.249463 0.724434 -1.97056 4.42449 -11.1897 -0.0 0.0 -0.0 9.60846 15.8568 -18.7842 -33.818 27.9155 -67.3853 0.28127 7.93229 -0.0195013 -3.58708 0.140117 -0.436498 -1.20677 -9.77804 3.69008 0.0 0.0 0.0 11.0282 17.697 5.57567 -28.8316 0.0870424 4.37728 20.8371 2.09984 -2.84448 23.7664 -0.0 -0.0 -0.0 0.0 -0.0 42.0707 -6.04155 1.03679 -10.7564 -0.291282 -1.62264 29.3617 -20.4251 3.93944 -23.1244 0.0 0.0 0.0 0.0 0.0 
